<svg xmlns="http://www.w3.org/2000/svg" width="285.115" height="317.585" viewBox="0 0 285.115 317.585">
  <g id="Group_244" data-name="Group 244" transform="translate(-25.852 -2130.698)">
    <g id="Group_201" data-name="Group 201" transform="translate(-141.136 209.636)">
      <g id="Group_87" data-name="Group 87" transform="translate(188 1951)">
        <text id="How_We_Work" data-name="How We Work" transform="translate(-21.012 -6.939)" fill="#776661" font-size="24" font-family="Montserrat-SemiBold, Montserrat" font-weight="600"><tspan x="0" y="0">How We Work</tspan></text>
        <g id="CF-20" transform="translate(40.487 11.232)">
          <path id="Path_139" data-name="Path 139" d="M50.27,32.89a2.627,2.627,0,0,0-1.909-.775h-.345c.129-.675.258-1.321.388-1.967a.732.732,0,0,0-.66-.947,3.747,3.747,0,0,0-3.574,1.536c-.818,1.206-1.522,2.5-2.34,3.79-.086.158-.187.3-.287.474a3.345,3.345,0,0,0-2.742-.646c-1.048.158-2.1.388-3.158.545a1.321,1.321,0,0,1-.775-.1c-1.163-.545-2.311-1.134-3.459-1.708-.158-.086-.287-.215-.445-.316a23.8,23.8,0,0,0-2.555-1.766,7.579,7.579,0,0,0-8.441.359,15.79,15.79,0,0,0-3.761,3.546,14.628,14.628,0,0,1-3.89,3.574c-.876.574-1.708,1.206-2.541,1.809a.718.718,0,0,0-.2,1.048.7.7,0,0,0,1.019.144l.3-.215,4.565-3.259a2.67,2.67,0,0,0,.6-.6,19.178,19.178,0,0,1,5.082-5.067,5.484,5.484,0,0,1,3.646-.962,8.369,8.369,0,0,1,4.536,1.924A11.484,11.484,0,0,0,31.781,34.9c.876.416,1.766.847,2.627,1.321a1.952,1.952,0,0,0,1.435.158q1.852-.359,3.7-.6a1.306,1.306,0,0,1,1.249.5,20.412,20.412,0,0,1-4.866,2.311,2.684,2.684,0,0,1-1.306,0c-1.636-.388-3.273-.847-4.909-1.306-.56-.144-.947,0-1.091.431s.1.775.632.933l4.134,1.206a5.742,5.742,0,0,0,4.206-.345,47.76,47.76,0,0,0,7.68-4.306,7.681,7.681,0,0,1,.861-.531q.919-.56,1.895-1.034a2.656,2.656,0,0,1,.8,0c-.115.172-.129.23-.172.273l-4.306,4.866a1.148,1.148,0,0,1-.33.258l-6.058,2.871a6.417,6.417,0,0,1-3.948.416c-2.268-.416-4.55-.761-6.819-1.191a5.871,5.871,0,0,0-5.469,1.565,20.1,20.1,0,0,0-1.708,2.024.732.732,0,0,0,.072,1.163c.388.258.746.115,1.12-.345a20.44,20.44,0,0,1,1.952-2.081A3.876,3.876,0,0,1,26.6,42.436c2.282.4,4.579.761,6.862,1.191a8.771,8.771,0,0,0,5.5-.56c1.435-.689,2.871-1.435,4.378-2.01a8.455,8.455,0,0,0,3.33-2.57c1.191-1.435,2.483-2.871,3.732-4.306A.823.823,0,0,0,50.27,32.89Zm-3.847-.244a.517.517,0,0,1-.158.23l-2.742,1.88-.144-.115c.689-1.077,1.435-2.182,2.1-3.244a1.565,1.565,0,0,1,1.321-.689C46.667,31.383,46.552,32.015,46.423,32.646Z" transform="translate(-9.428 -1.498)" fill="#776661"/>
          <path id="Path_140" data-name="Path 140" d="M30.875,36.031a9.115,9.115,0,1,0-9.115-9.115,9.115,9.115,0,0,0,9.115,9.115Zm0-16.666a7.551,7.551,0,1,1-7.551,7.551,7.551,7.551,0,0,1,7.551-7.551Z" transform="translate(-4.058 -6.447)" fill="#776661"/>
          <path id="Path_141" data-name="Path 141" d="M45.242,10.205c-.215,0-5.541-1.278-9.661,1.321s-5.34,7.909-5.383,8.139l-.158.746.746.187a15.015,15.015,0,0,0,3.259.33,12.044,12.044,0,0,0,6.4-1.651c4.134-2.6,5.326-7.924,5.326-8.153l.172-.746Zm-5.627,7.737a11.958,11.958,0,0,1-7.665,1.263,11.958,11.958,0,0,1,4.464-6.287,11.958,11.958,0,0,1,7.665-1.263A11.957,11.957,0,0,1,39.615,17.942Z" transform="translate(-0.453 -9.891)" fill="#776661"/>
          <path id="Path_142" data-name="Path 142" d="M31.217,19.657h.79v-.775a9.3,9.3,0,0,0-2.282-6.029,9.216,9.216,0,0,0-6.043-2.282H22.92v.775A9.331,9.331,0,0,0,25.2,17.388a9.273,9.273,0,0,0,6.015,2.268Zm-2.6-5.742a7.063,7.063,0,0,1,1.766,4.077,7.177,7.177,0,0,1-4.091-1.751,7.177,7.177,0,0,1-1.751-4.091,7.063,7.063,0,0,1,4.077,1.794Z" transform="translate(-3.553 -9.596)" fill="#776661"/>
        </g>
        <path id="CF-21" d="M62.234,33.692,57.368,19.538a.115.115,0,0,0,0-.072h0V19.38h0v-.072h-.273L33.926,12.648h0a.689.689,0,0,0-.56,0L13.514,22.84a.79.79,0,0,0-.373.4L7.858,36.161a.833.833,0,0,0,0,.617.79.79,0,0,0,.474.416l5.01,1.565H12.9v8.153a.775.775,0,0,0,.531.732l26.642,9.13a.675.675,0,0,0,.244,0,.847.847,0,0,0,.517-.187L57.123,42.434a.761.761,0,0,0,.273-.589V33.434l3.8,1.278a.775.775,0,0,0,.79-.2.761.761,0,0,0,.244-.818ZM40.07,29.228l-5.412-1.349-.1-13.45,20.1,5.641Zm-6.976-1.694-17.01-4.306,16.91-8.613ZM14.332,24.448,38.85,30.534,35.362,44.071,9.523,36.018Zm.144,14.728,21.245,6.632a.646.646,0,0,0,.23,0,.746.746,0,0,0,.388-.1.8.8,0,0,0,.373-.488l2.871-11.154V54.994L14.5,46.382ZM41.1,54.377V30.4l14.728-9.216V41.573ZM57.411,31.84V24.519l2.871,8.24Z" transform="translate(184.231 77.325)" fill="#776661"/>
        <g id="CF-22" transform="translate(38 170.079)">
          <path id="Path_143" data-name="Path 143" d="M67.378,31.466l-8.613-8.613a3.287,3.287,0,0,0-2.34-.976h-8.4V17.57a3.33,3.33,0,0,0-3.316-3.33H11.7A3.33,3.33,0,0,0,8.38,17.57V45.476A3.33,3.33,0,0,0,11.7,48.792h1.88a5.857,5.857,0,0,0,11.6,0H49.09a5.857,5.857,0,0,0,11.6,0H65a3.33,3.33,0,0,0,3.359-3.316V33.849a3.244,3.244,0,0,0-.976-2.383ZM19.4,52.251a4.306,4.306,0,1,1,4.306-4.306A4.306,4.306,0,0,1,19.4,52.251Zm27.1-5.067H25.2a5.857,5.857,0,0,0-11.6,0H11.8a1.751,1.751,0,0,1-1.751-1.708V17.556A1.766,1.766,0,0,1,11.8,15.79H44.812a1.766,1.766,0,0,1,1.751,1.766V47.184Zm8.383,5.067A4.306,4.306,0,1,1,59.2,47.945,4.306,4.306,0,0,1,54.889,52.251Zm11.9-6.775a1.751,1.751,0,0,1-1.751,1.751H60.732a5.857,5.857,0,0,0-11.6,0H48.028V23.4h8.311a1.751,1.751,0,0,1,1.235.517l8.613,8.613a1.751,1.751,0,0,1,.517,1.235Z" transform="translate(-8.38 -14.24)" fill="#776661"/>
          <rect id="Rectangle_29" data-name="Rectangle 29" width="29.068" height="1.565" transform="translate(4.263 5.326)" fill="#776661"/>
          <rect id="Rectangle_30" data-name="Rectangle 30" width="29.068" height="1.565" transform="translate(4.263 10.666)" fill="#776661"/>
          <rect id="Rectangle_31" data-name="Rectangle 31" width="29.068" height="1.565" transform="translate(4.263 16.02)" fill="#776661"/>
          <rect id="Rectangle_32" data-name="Rectangle 32" width="29.068" height="1.565" transform="translate(4.263 21.374)" fill="#776661"/>
          <path id="Path_144" data-name="Path 144" d="M37.24,21.67V34.79H50.059V28.517L43.212,21.67ZM48.494,33.154H38.8V23.105h3.833l5.929,5.929Z" transform="translate(4.188 -11.004)" fill="#776661"/>
        </g>
        <g id="CF-23" transform="translate(194.64 213.03)">
          <path id="Path_145" data-name="Path 145" d="M33.783,22.866a4.306,4.306,0,1,0-4.306,4.306,4.306,4.306,0,0,0,4.306-4.306Zm-6.9,0a2.67,2.67,0,1,1,2.67,2.67,2.67,2.67,0,0,1-2.67-2.67Z" transform="translate(-11.588 -10.019)" fill="#776661"/>
          <path id="Path_146" data-name="Path 146" d="M51.641,44.752,46.473,31l-1.435.545,4.55,12.13L42.612,40.89a.7.7,0,0,0-.589,0L33.7,44.221l-8.326-3.33a.7.7,0,0,0-.589,0l-6.976,2.785,4.55-12.13L20.922,31,15.754,44.781a.79.79,0,0,0,1.019,1l8.283-3.3,8.3,3.273a.79.79,0,0,0,.574,0l8.354-3.273,8.3,3.273a.646.646,0,0,0,.287,0,.732.732,0,0,0,.545-.23A.746.746,0,0,0,51.641,44.752Z" transform="translate(-15.708 -4.602)" fill="#776661"/>
          <path id="Path_147" data-name="Path 147" d="M32.118,46.932a.761.761,0,0,0,.589-.273c.5-.589,12.259-14.355,12.259-21.2a12.847,12.847,0,0,0-25.695,0c0,6.876,11.757,20.613,12.259,21.2A.761.761,0,0,0,32.118,46.932ZM20.835,25.4a11.283,11.283,0,0,1,22.566,0c0,2.555-2.038,6.847-5.885,12.388-2.168,3.129-4.378,5.842-5.4,7.077-1.019-1.235-3.23-3.948-5.4-7.077-3.847-5.484-5.885-9.776-5.885-12.331Z" transform="translate(-14.157 -12.61)" fill="#776661"/>
        </g>
        <text id="We_are_picking_the_best_fresh_vegetables_from_our_farms_" data-name="We are picking
the best fresh
vegetables from
our farms
" transform="translate(38 75.913)" fill="#776661" font-size="8" font-family="Montserrat-Medium, Montserrat" font-weight="500"><tspan x="0" y="0">We are picking</tspan><tspan x="0" y="10">the best fresh</tspan><tspan x="0" y="20">vegetables from</tspan><tspan x="0" y="30">our farms</tspan><tspan x="0" y="40"></tspan></text>
        <text id="We_are_carefully_packing_vegetables" data-name="We are carefully
packing
vegetables" transform="translate(198.103 148.079)" fill="#776661" font-size="8" font-family="Montserrat-Medium, Montserrat" font-weight="500"><tspan x="0" y="0">We are carefully</tspan><tspan x="0" y="10">packing</tspan><tspan x="0" y="20">vegetables</tspan></text>
        <text id="Fast_free_delivery_up_to_40_aed" data-name="Fast free 
delivery up to
40 aed" transform="translate(38 229.84)" fill="#776661" font-size="8" font-family="Montserrat-Medium, Montserrat" font-weight="500"><tspan x="0" y="0">Fast free </tspan><tspan x="0" y="10">delivery up to</tspan><tspan x="0" y="20">40 aed</tspan></text>
        <text id="To_your_location_" data-name="To your
location " transform="translate(198.103 275.647)" fill="#776661" font-size="8" font-family="Montserrat-Medium, Montserrat" font-weight="500"><tspan x="0" y="0">To your</tspan><tspan x="0" y="10">location </tspan></text>
      </g>
    </g>
    <path id="Path_197" data-name="Path 197" d="M-4009.225,710.017a106.478,106.478,0,0,1,41.018,9.821c20.653,9.821,32.063,23.109,32.063,23.109" transform="translate(4169 1524)" fill="none" stroke="#776661" stroke-width="2" stroke-dasharray="2 2"/>
    <path id="Path_198" data-name="Path 198" d="M-4009.225,710.017a106.478,106.478,0,0,1,41.018,9.821c20.653,9.821,32.063,23.109,32.063,23.109" transform="translate(1550.191 -1479.205) rotate(-60)" fill="none" stroke="#776661" stroke-width="2" stroke-dasharray="2 2"/>
    <path id="Path_199" data-name="Path 199" d="M-4009.225,710.017a106.478,106.478,0,0,1,41.018,9.821c20.653,9.821,32.063,23.109,32.063,23.109" transform="translate(4225.288 2580.279) rotate(13)" fill="none" stroke="#776661" stroke-width="2" stroke-dasharray="2 2"/>
  </g>
</svg>
